<svg width="24" height="24" viewBox="0 0 24 24" fill="none" xmlns="http://www.w3.org/2000/svg">
<path d="M8.25 14.25H15.5625" stroke="#747474" stroke-width="1.125" stroke-miterlimit="10" stroke-linecap="round" stroke-linejoin="round"/>
<path d="M8.25 16.5H15.5625" stroke="#747474" stroke-width="1.125" stroke-miterlimit="10" stroke-linecap="round" stroke-linejoin="round"/>
<path d="M13.3478 6.10502V5.25009H10.4589V6.10502C9.1568 6.683 8.25 8.01959 8.25 9.57893V20.2234C8.25 20.6509 8.58714 21.0001 8.99985 21.0001H14.8126C15.2254 21.0001 15.5625 20.6509 15.5625 20.2234V9.57893C15.5625 8.01959 14.6499 6.683 13.3536 6.10502H13.3478Z" stroke="#747474" stroke-width="1.125" stroke-miterlimit="10" stroke-linecap="round" stroke-linejoin="round"/>
<path d="M15.5625 9.1875H8.25" stroke="#747474" stroke-width="1.125" stroke-miterlimit="10" stroke-linecap="round" stroke-linejoin="round"/>
<path d="M11.0196 3H12.7929C13.3941 3 13.875 3.50207 13.875 4.1157V5.25H9.9375V4.1157C9.9375 3.49587 10.4244 3 11.0196 3Z" stroke="#747474" stroke-width="1.125" stroke-miterlimit="10" stroke-linecap="round" stroke-linejoin="round"/>
</svg>
