<svg width="24" height="24" viewBox="0 0 24 24" fill="none" xmlns="http://www.w3.org/2000/svg">
<path d="M6.79687 14.1273V14.1273C5.52835 14.1273 4.5 13.0989 4.5 11.8304L4.5 7.58182H6.14062M6.79687 14.1273V14.6568C6.79687 15.6296 7.58549 16.4182 8.55831 16.4182H9.75M6.79687 14.1273H12.7031M12.7031 14.1273V14.1273C13.9717 14.1273 15 13.0989 15 11.8304V7.58182H13.3594M12.7031 14.1273V14.6568C12.7031 15.6296 11.9145 16.4182 10.9417 16.4182H9.75M9.75 16.4182V18.375C9.75 19.8247 10.9287 21 12.3784 21V21C13.8244 21 15 19.8278 15 18.3818V18.3818C15 16.9358 16.1756 15.7636 17.6216 15.7636V15.7636C19.0713 15.7636 20.25 16.9389 20.25 18.3886V21M6.14062 7.58182V4.14844C6.14062 3.51417 6.6548 3 7.28906 3V3C7.92333 3 8.4375 3.51417 8.4375 4.14844V7.58182M6.14062 7.58182H8.4375M8.4375 7.58182H11.0625M13.3594 7.58182V4.14844C13.3594 3.51417 12.8452 3 12.2109 3V3C11.5767 3 11.0625 3.51417 11.0625 4.14844V7.58182M13.3594 7.58182H11.0625" stroke="#747474" stroke-width="1.125" stroke-linecap="round"/>
</svg>
