<svg width="24" height="24" viewBox="0 0 24 24" fill="none" xmlns="http://www.w3.org/2000/svg">
<path d="M6.75 20.4375C6.43934 20.4375 6.1875 20.6893 6.1875 21C6.1875 21.3107 6.43934 21.5625 6.75 21.5625V20.4375ZM20.25 21.5625C20.5607 21.5625 20.8125 21.3107 20.8125 21C20.8125 20.6893 20.5607 20.4375 20.25 20.4375V21.5625ZM12.7151 14.0625C13.0258 14.0625 13.2776 13.8107 13.2776 13.5C13.2776 13.1893 13.0258 12.9375 12.7151 12.9375V14.0625ZM18.3663 14.0625C18.6769 14.0625 18.9288 13.8107 18.9288 13.5C18.9288 13.1893 18.6769 12.9375 18.3663 12.9375V14.0625ZM8.84293 19.6825L9.35747 21.1825L10.4216 20.8175L9.90707 19.3175L8.84293 19.6825ZM17.0929 19.3175L16.5784 20.8175L17.6425 21.1825L18.1571 19.6825L17.0929 19.3175ZM13.3339 18.9715L12.8019 20.8465L13.8842 21.1535L14.4161 19.2785L13.3339 18.9715ZM6.75 21.5625H20.25V20.4375H6.75V21.5625ZM8.94767 14.0625H12.7151V12.9375H8.94767V14.0625ZM13.875 14.0625H18.3663V12.9375H13.875V14.0625ZM14.9782 16.6294V17.7596H16.1032V16.6294H14.9782ZM14.3586 18.9789L14.2672 19.0457L14.9305 19.9543L15.0219 19.8876L14.3586 18.9789ZM14.9782 17.7596C14.9782 18.2417 14.748 18.6947 14.3586 18.9789L15.0219 19.8876C15.7014 19.3916 16.1032 18.6009 16.1032 17.7596H14.9782ZM14.5988 16.25C14.8084 16.25 14.9782 16.4198 14.9782 16.6294H16.1032C16.1032 15.7985 15.4297 15.125 14.5988 15.125V16.25Z" fill="#747474"/>
<path d="M9.14423 16.2647L8.5952 16.3871L8.69331 16.8272H9.14423V16.2647ZM7.55769 9.14706L7.04173 8.92304L6.96886 9.09086L7.00867 9.26944L7.55769 9.14706ZM7.55769 7.44071L8.1067 7.31826L7.55769 7.44071ZM11.9932 5.91176L12.2363 5.40449C12.1604 5.36814 12.0773 5.34926 11.9932 5.34926V5.91176ZM6.35536 18.3085L5.80488 18.4242L6.35536 18.3085ZM9.3579 3.71007L9.86386 6.03155L10.9631 5.79198L10.4571 3.4705L9.3579 3.71007ZM5.88614 5.79198L5.44979 3.78993L4.3506 4.0295L4.78694 6.03155L5.88614 5.79198ZM5.63299 3.5625H6.60577V2.4375H5.63299V3.5625ZM6.60577 3.5625H9.1747V2.4375H6.60577V3.5625ZM10.4135 5.34926H7.24038V6.47426H10.4135V5.34926ZM6.05617 3.11978L6.69079 6.03155L7.78998 5.79198L7.15537 2.88022L6.05617 3.11978ZM3.52583 7.58008L5.80488 18.4242L6.90583 18.1928L4.62678 7.34869L3.52583 7.58008ZM7.82329 20.0625H19.5V18.9375H7.82329V20.0625ZM20.8125 18.75V17.0147H19.6875V18.75H20.8125ZM9.69326 16.1423L8.10672 9.02468L7.00867 9.26944L8.5952 16.3871L9.69326 16.1423ZM7.55769 9.14706C8.07366 9.37108 8.07378 9.3708 8.0739 9.37053C8.07394 9.37043 8.07406 9.37016 8.07414 9.36997C8.0743 9.36959 8.07447 9.3692 8.07464 9.3688C8.07499 9.368 8.07534 9.36716 8.07571 9.36629C8.07645 9.36454 8.07725 9.36265 8.0781 9.3606C8.07979 9.35651 8.08169 9.35182 8.08378 9.34654C8.08794 9.33596 8.09284 9.323 8.09827 9.30766C8.10913 9.27697 8.12212 9.23679 8.13567 9.1872C8.16279 9.08792 8.19205 8.95132 8.21111 8.77811C8.24933 8.43068 8.24581 7.94194 8.1067 7.31826L7.00868 7.56317C7.121 8.06673 7.11749 8.43116 7.09285 8.65509C7.08048 8.76756 7.0626 8.84619 7.05043 8.89073C7.04434 8.91303 7.03965 8.9269 7.03774 8.93229C7.03679 8.93498 7.03653 8.93556 7.03713 8.93402C7.03744 8.93325 7.03796 8.93195 7.03872 8.93012C7.03909 8.92921 7.03953 8.92816 7.04003 8.92698C7.04028 8.92639 7.04055 8.92577 7.04083 8.92511C7.04097 8.92478 7.04112 8.92444 7.04127 8.9241C7.04134 8.92393 7.04146 8.92366 7.04149 8.92358C7.04161 8.92331 7.04173 8.92304 7.55769 9.14706ZM7.24038 5.34926H6.22421V6.47426H7.24038V5.34926ZM6.22421 5.34926H5.33654V6.47426H6.22421V5.34926ZM8.1067 7.31826C7.9377 6.56059 7.51336 6.07257 7.13418 5.77952C6.94626 5.63429 6.76859 5.53591 6.63547 5.47289C6.5686 5.44123 6.51202 5.41805 6.46973 5.40203C6.44855 5.39401 6.43086 5.38775 6.41714 5.38309C6.41027 5.38075 6.40439 5.37882 6.39955 5.37726C6.39713 5.37649 6.39497 5.3758 6.39308 5.37521C6.39213 5.37491 6.39125 5.37464 6.39044 5.37439C6.39004 5.37426 6.38965 5.37414 6.38928 5.37403C6.38909 5.37397 6.38882 5.37389 6.38873 5.37386C6.38847 5.37378 6.38821 5.3737 6.22421 5.91176C6.06021 6.44983 6.05996 6.44975 6.05971 6.44967C6.05964 6.44965 6.0594 6.44958 6.05924 6.44953C6.05893 6.44944 6.05864 6.44935 6.05837 6.44926C6.05781 6.44909 6.05732 6.44894 6.05689 6.4488C6.05602 6.44853 6.05539 6.44833 6.055 6.4482C6.0542 6.44795 6.05433 6.44798 6.05533 6.44832C6.05734 6.449 6.06279 6.45089 6.07125 6.45409C6.08824 6.46053 6.11695 6.47211 6.15411 6.4897C6.22904 6.52518 6.33437 6.58321 6.44624 6.66967C6.66664 6.84 6.90904 7.11646 7.00868 7.56317L8.1067 7.31826ZM19.5 15.7022H14.5385V16.8272H19.5V15.7022ZM14.5385 15.7022H9.14423V16.8272H14.5385V15.7022ZM15.0875 16.1423L13.5009 9.02468L12.4029 9.26944L13.9894 16.3871L15.0875 16.1423ZM12.9519 9.14706C13.4527 9.40328 13.4528 9.40301 13.453 9.40273C13.453 9.40263 13.4532 9.40235 13.4532 9.40216C13.4534 9.40178 13.4536 9.40138 13.4539 9.40098C13.4543 9.40017 13.4547 9.39931 13.4551 9.39842C13.456 9.39662 13.457 9.39465 13.4581 9.39252C13.4602 9.38824 13.4625 9.38328 13.4652 9.37764C13.4705 9.36635 13.4768 9.35233 13.4838 9.33563C13.4979 9.30223 13.5151 9.25803 13.5331 9.20339C13.5693 9.09408 13.609 8.943 13.6349 8.75319C13.6871 8.37146 13.6825 7.84236 13.4916 7.19277L12.4122 7.50988C12.5565 8.00105 12.5519 8.36981 12.5203 8.60076C12.5043 8.71729 12.4812 8.80126 12.465 8.8504C12.4568 8.87499 12.4504 8.89087 12.4475 8.89774C12.4461 8.90118 12.4455 8.90235 12.446 8.90121C12.4463 8.90065 12.4468 8.8995 12.4477 8.89777C12.4481 8.89691 12.4486 8.8959 12.4492 8.89474C12.4495 8.89417 12.4498 8.89355 12.4501 8.8929C12.4503 8.89258 12.4505 8.89224 12.4506 8.8919C12.4507 8.89172 12.4508 8.89146 12.4509 8.89137C12.451 8.89111 12.4512 8.89084 12.9519 9.14706ZM13.4916 7.19277C13.3003 6.54159 13.0187 6.10621 12.7629 5.82512C12.6359 5.68563 12.5177 5.58686 12.4244 5.5197C12.3778 5.48617 12.3375 5.46059 12.3055 5.44179C12.2895 5.43239 12.2756 5.42469 12.2639 5.41852C12.2581 5.41544 12.2529 5.41274 12.2483 5.41041C12.246 5.40924 12.2438 5.40817 12.2418 5.40718C12.2408 5.40669 12.2398 5.40622 12.2389 5.40577C12.2384 5.40555 12.238 5.40533 12.2375 5.40512C12.2373 5.40501 12.237 5.40485 12.2369 5.4048C12.2366 5.40465 12.2363 5.40449 11.9932 5.91176C11.7501 6.41904 11.7498 6.41889 11.7495 6.41874C11.7494 6.41869 11.7491 6.41854 11.7489 6.41844C11.7485 6.41825 11.7481 6.41805 11.7477 6.41787C11.7469 6.41749 11.7462 6.41713 11.7455 6.41679C11.7441 6.4161 11.7428 6.41547 11.7417 6.41491C11.7395 6.41377 11.7378 6.41289 11.7366 6.41228C11.7343 6.41105 11.7341 6.41087 11.7358 6.41187C11.7392 6.41387 11.7502 6.42055 11.7673 6.43285C11.8014 6.45737 11.8601 6.5046 11.9309 6.5824C12.0706 6.73591 12.2684 7.02031 12.4122 7.50988L13.4916 7.19277ZM11.9932 5.34926H10.4135V6.47426H11.9932V5.34926ZM7.55769 9.70956H12.9519V8.58456H7.55769V9.70956ZM20.8125 17.0147C20.8125 16.2898 20.2249 15.7022 19.5 15.7022V16.8272C19.6036 16.8272 19.6875 16.9112 19.6875 17.0147H20.8125ZM19.5 20.0625C20.2249 20.0625 20.8125 19.4749 20.8125 18.75H19.6875C19.6875 18.8536 19.6036 18.9375 19.5 18.9375V20.0625ZM5.80488 18.4242C6.00554 19.3789 6.84769 20.0625 7.82329 20.0625V18.9375C7.37984 18.9375 6.99704 18.6268 6.90583 18.1928L5.80488 18.4242ZM5.33654 5.34926C4.16156 5.34926 3.28417 6.43022 3.52583 7.58008L4.62678 7.34869C4.53206 6.89798 4.87597 6.47426 5.33654 6.47426V5.34926ZM10.4571 3.4705C10.3257 2.86749 9.79187 2.4375 9.1747 2.4375V3.5625C9.26287 3.5625 9.33913 3.62393 9.3579 3.71007L10.4571 3.4705ZM5.44979 3.78993C5.42431 3.67303 5.51335 3.5625 5.63299 3.5625V2.4375C4.79551 2.4375 4.17226 3.21123 4.3506 4.0295L5.44979 3.78993Z" fill="#747474"/>
</svg>
