<svg width="40" height="40" viewBox="0 0 31 31" fill="none" xmlns="http://www.w3.org/2000/svg">
<g clip-path="url(#clip0_13487_86068)">
<mask id="mask0_13487_86068" style="mask-type:alpha" maskUnits="userSpaceOnUse" x="0" y="0" width="31" height="31">
<path d="M0 7C0 3.13401 3.13401 0 7 0H24C27.866 0 31 3.13401 31 7V24C31 27.866 27.866 31 24 31H7C3.13401 31 0 27.866 0 24V7Z" fill="#ffffff"/>
</mask>
<g mask="url(#mask0_13487_86068)">
<path fill-rule="evenodd" clip-rule="evenodd" d="M5.95918 11.9381L5.95918 6.69388C5.95918 5.20609 7.16527 4 8.65306 4L23.3469 4C24.8347 4 26.0408 5.20609 26.0408 6.69388L26.0408 11.9381C27.1715 12.2579 28 13.2975 28 14.5306L28 25.3061C28 26.7939 26.7939 28 25.3061 28L6.69388 28C5.20609 28 4 26.7939 4 25.3061L4 14.5306C4 13.2975 4.82849 12.2579 5.95918 11.9381Z" fill="#ffffff"/>
<path fill-rule="evenodd" clip-rule="evenodd" d="M5.95918 11.9381L5.95918 6.69388C5.95918 5.20609 7.16527 4 8.65306 4L23.3469 4C24.8347 4 26.0408 5.20609 26.0408 6.69388L26.0408 11.9381C27.1715 12.2579 28 13.2975 28 14.5306L28 25.3061C28 26.7939 26.7939 28 25.3061 28L6.69388 28C5.20609 28 4 26.7939 4 25.3061L4 14.5306C4 13.2975 4.82849 12.2579 5.95918 11.9381ZM7.42857 6.69388C7.42857 6.01761 7.97679 5.46939 8.65306 5.46939L23.3469 5.46939C24.0232 5.46939 24.5714 6.01761 24.5714 6.69388L24.5714 11.8367L24.3265 11.8367C23.3798 11.8367 22.6122 12.6042 22.6122 13.551L22.6122 19.746C22.6122 21.1357 21.8772 22.1493 20.721 22.3222C19.6491 22.4825 18.1244 22.6122 16 22.6122C13.8756 22.6122 12.3509 22.4825 11.279 22.3222C10.1228 22.1493 9.38776 21.1357 9.38776 19.746L9.38776 13.551C9.38776 12.6042 8.62024 11.8367 7.67347 11.8367L7.42857 11.8367L7.42857 6.69388ZM5.46939 14.5306C5.46939 13.8543 6.01761 13.3061 6.69388 13.3061L7.67347 13.3061C7.80872 13.3061 7.91837 13.4158 7.91837 13.551L7.91837 19.746C7.91837 21.6317 8.97851 23.4639 11.0617 23.7754C12.2187 23.9484 13.8175 24.0816 16 24.0816C18.1825 24.0816 19.7813 23.9484 20.9383 23.7754C23.0215 23.4639 24.0816 21.6317 24.0816 19.746L24.0816 13.551C24.0816 13.4158 24.1913 13.3061 24.3265 13.3061L25.3061 13.3061C25.9824 13.3061 26.5306 13.8543 26.5306 14.5306L26.5306 25.3061C26.5306 25.9824 25.9824 26.5306 25.3061 26.5306L6.69388 26.5306C6.01761 26.5306 5.46939 25.9824 5.46939 25.3061L5.46939 14.5306Z" fill="#2A2A3E"/>
</g>
</g>
<defs>
<clipPath id="clip0_13487_86068">
<rect width="31" height="31" fill="white"/>
</clipPath>
</defs>
</svg>
