<svg width="24" height="24" viewBox="0 0 24 24" fill="none" xmlns="http://www.w3.org/2000/svg">
<path d="M12 15.167C12.8149 15.167 13.4192 15.3693 13.8109 15.7019C14.1887 16.0227 14.4375 16.5224 14.4375 17.279V17.5762C14.4375 18.708 13.5345 19.6882 12 19.6882C10.4655 19.6882 9.5625 18.708 9.5625 17.5762V17.279C9.5625 16.5642 9.85514 16.0561 10.2869 15.714C10.7332 15.3603 11.3536 15.167 12 15.167Z" stroke="#747474" stroke-width="1.125"/>
<path d="M7.49941 14.636C6.78391 14.636 6.43505 14.3554 6.24107 14.0672C6.03134 13.7556 5.96668 13.3745 5.96217 13.1442C5.96573 13.1327 5.9765 13.0984 6.00568 13.0375C6.0535 12.9378 6.13319 12.8033 6.2505 12.6443C6.48439 12.3272 6.84855 11.9388 7.34984 11.5621C8.34746 10.8124 9.88044 10.1147 11.9994 10.1147C14.1184 10.1147 15.6514 10.8124 16.649 11.5621C17.1503 11.9388 17.5144 12.3272 17.7483 12.6443C17.8656 12.8033 17.9453 12.9378 17.9931 13.0375C18.0223 13.0984 18.0331 13.1327 18.0367 13.1442C18.0321 13.3745 17.9675 13.7556 17.7578 14.0672C17.5638 14.3554 17.2149 14.636 16.4994 14.636C16.3823 14.636 16.2612 14.5925 16.0633 14.4342C15.9621 14.3532 15.8559 14.2547 15.7257 14.1316C15.713 14.1196 15.7001 14.1073 15.687 14.0949C15.5705 13.9846 15.4378 13.859 15.2928 13.7333C14.6142 13.1451 13.663 12.5558 11.9994 12.5558C10.3358 12.5558 9.38466 13.1451 8.706 13.7333C8.561 13.859 8.42833 13.9846 8.31181 14.0949C8.2987 14.1073 8.2858 14.1196 8.27311 14.1316C8.1429 14.2547 8.03678 14.3532 7.9355 14.4342C7.73763 14.5925 7.61653 14.636 7.49941 14.636Z" stroke="#747474" stroke-width="1.125" stroke-linejoin="round"/>
<path d="M5.1 10.1781C4.3845 10.1781 4.03563 9.8975 3.84166 9.60928C3.63909 9.30829 3.57185 8.94253 3.56343 8.71042C3.57385 8.68705 3.59207 8.65127 3.62142 8.60293C3.69278 8.48542 3.81061 8.32531 3.98115 8.13526C4.32086 7.75669 4.84446 7.28744 5.55451 6.83026C6.97067 5.91844 9.11598 5.0625 12 5.0625C14.5751 5.0625 16.7245 5.91308 18.231 6.83683C18.9843 7.29878 19.5683 7.77395 19.9573 8.15921C20.1527 8.35276 20.2907 8.51559 20.3752 8.63536C20.4038 8.67591 20.4233 8.70719 20.4358 8.72939C20.4244 8.96212 20.3555 9.31637 20.1583 9.60928C19.9644 9.8975 19.6155 10.1781 18.9 10.1781C18.8066 10.1781 18.6599 10.1261 18.3322 9.87572C18.2449 9.80902 18.1423 9.72598 18.0273 9.63293C17.7738 9.42777 17.4602 9.17398 17.1181 8.9394C16.0568 8.21159 14.5222 7.50354 12 7.50354C9.47782 7.50354 7.94317 8.21159 6.88187 8.9394C6.53981 9.17398 6.22621 9.42778 5.97271 9.63294C5.85774 9.72598 5.75514 9.80902 5.66784 9.87572C5.34014 10.1261 5.19343 10.1781 5.1 10.1781ZM3.55322 8.73654C3.55315 8.73657 3.55352 8.73517 3.55455 8.73225C3.5538 8.73505 3.55328 8.73651 3.55322 8.73654ZM20.4539 8.76617C20.4538 8.76615 20.4529 8.76411 20.4516 8.7602C20.4534 8.76426 20.454 8.7662 20.4539 8.76617Z" stroke="#747474" stroke-width="1.125" stroke-linejoin="round"/>
</svg>
