<svg id="vector" xmlns="http://www.w3.org/2000/svg" width="512" height="512" viewBox="0 0 512 512"><path fill="#000000" d="M229.9,1.4c-10.3,2.8 -19,10.3 -23.8,20.5l-2.6,5.6 -0.3,120.7 -0.2,120.8 -94.5,-0c-64.2,-0 -95.3,0.3 -97.2,1.1 -3.8,1.4 -8.3,5.7 -9.9,9.6 -1.1,2.6 -1.4,15.9 -1.4,72.3 0,67.7 0,69 2,71 2.5,2.5 9.2,2.7 11.1,0.3 1.2,-1.3 1.5,-14.1 1.9,-70.2l0.5,-68.6 37.3,-0.3 37.2,-0.2 0,34.9c0,32.8 0.1,35 1.9,37.2l1.9,2.4 32.4,0.3c31.7,0.3 32.5,0.2 35.1,-1.8l2.7,-2.1 0,-35.5 0,-35.4 37.3,0.2 37.2,0.3 0,106 0,106 -111.5,-0 -111.5,-0 -0.3,-20.5c-0.2,-19.3 -0.4,-20.5 -2.4,-22.7 -2.8,-3 -8,-3.1 -10.9,-0.2 -1.9,1.9 -2,2.9 -1.7,24.9l0.3,22.8 3,3.8c1.7,2 4.6,4.5 6.5,5.6 3.4,1.8 10.8,1.8 239,1.6l235.5,-0.3 5.7,-2.7c7.9,-3.7 14.2,-9.8 18.1,-17.7l3.2,-6.6 0.3,-165.3 0.2,-165.3 -2.4,-2.4c-3.2,-3.2 -7.5,-3.3 -10.4,-0.2l-2.2,2.3 0,122.7 0,122.7 -121.5,-0 -121.5,-0 0,-58.8 0,-58.7 -2.3,-4c-1.3,-2.2 -4,-4.9 -6.2,-6.2 -3.5,-2 -5.4,-2.3 -15.7,-2.3l-11.8,-0 0,-99 0,-99 139.5,-0 139.5,-0 0,23.5 0,23.6 2.5,2.4c3.1,3.2 6.9,3.2 10.1,-0l2.5,-2.5 -0.3,-45.3 -0.3,-45.2 -3.2,-6.6c-3.9,-7.9 -10.2,-14 -18.1,-17.7l-5.7,-2.7 -125,-0.2c-97,-0.1 -126,0.1 -129.6,1.1zM482.4,16.2c5.3,1.6 11.8,8.1 13.4,13.4 0.6,2.3 1.2,9.1 1.2,15.3l0,11.1 -139.5,-0 -139.5,-0 0,-11.8c0,-10.2 0.3,-12.3 2.4,-16.8 2.5,-5.3 6.9,-9.4 12.1,-11.2 4.6,-1.6 244.5,-1.6 249.9,-0zM149,314l0,30 -22,-0 -22,-0 0,-30 0,-30 22,-0 22,-0 0,30zM497,446.7c0,32.3 -0.1,32.9 -2.4,37.8 -2.7,5.9 -4.6,7.7 -10.6,10.4 -4.4,2 -6,2.1 -117.2,2.1l-112.8,-0 0,-41.5 0,-41.5 121.5,-0 121.5,-0 0,32.7z" stroke="#00000000" id="path_0"/><path fill="#000000" d="M324.3,30c-4.4,1.8 -5.7,8.6 -2.3,12 1.9,1.9 3.3,2 35.5,2 32.2,-0 33.6,-0.1 35.5,-2 2.5,-2.5 2.6,-7.1 0.1,-10.1l-1.9,-2.4 -32.4,-0.2c-17.7,-0.1 -33.3,0.2 -34.5,0.7z" stroke="#00000000" id="path_1"/><path fill="#000000" d="M324.5,433.7c-11.9,6.2 -16.5,19.6 -10.6,31.1 2.5,4.8 5.5,7.6 11.1,10.1 4.2,1.9 6.5,2.1 32.5,2.1 26,-0 28.3,-0.2 32.5,-2.1 8,-3.6 12.5,-9.6 13.6,-18.3 1.2,-8.8 -4.4,-18.5 -13.3,-23 -4.7,-2.4 -61.3,-2.3 -65.8,0.1zM387,449.7c2.6,3.3 2.1,7.9 -1.1,10.5 -1.9,1.6 -4.8,1.8 -28.4,1.8 -23.6,-0 -26.5,-0.2 -28.4,-1.8 -3.2,-2.6 -3.7,-7.2 -1.1,-10.5l2.1,-2.7 27.4,-0 27.4,-0 2.1,2.7z" stroke="#00000000" id="path_2"/><path fill="#000000" d="M321.3,102.1c-4.2,2.7 -6.5,6.6 -10.8,17.9 -1.9,5.1 -3.9,9.7 -4.6,10.1 -0.6,0.4 -6.3,1 -12.5,1.4 -22.5,1.4 -27.9,8.7 -22,29.3 3.9,13.4 4,13 -6.2,21.2 -9.9,7.8 -13.2,12.6 -13.2,19 0,6.5 3.4,11.4 13.3,19.1 10.1,8 10,7.6 6.1,21.1 -6,20.7 -0.3,28.2 22.3,29.5 6.2,0.3 11.7,0.9 12.3,1.3 0.6,0.4 2.6,4.9 4.5,10 6,15.9 9.8,20 18.8,20 5.2,-0 10.2,-2.2 20.2,-8.9 3.3,-2.3 7,-4.1 8.2,-4.1 1.2,-0 5.1,2 8.7,4.4 9.8,6.8 13.9,8.6 19.3,8.6 9,-0 12.8,-4 18.8,-20 1.9,-5.1 3.9,-9.6 4.5,-10 0.6,-0.4 6.1,-1 12.3,-1.3 22.6,-1.3 28.3,-8.8 22.3,-29.5 -3.9,-13.5 -4,-13.1 6.2,-21.1 9.8,-7.7 13.2,-12.6 13.2,-19.1 0,-6.5 -3.4,-11.4 -13.2,-19.1 -10.2,-8 -10.1,-7.6 -6.2,-21.1 5.9,-20.6 0.5,-27.9 -22,-29.3 -6.2,-0.4 -11.9,-1 -12.5,-1.4 -0.7,-0.4 -2.7,-5 -4.6,-10.1 -4.3,-11.4 -6.7,-15.3 -10.9,-17.9 -3.9,-2.4 -10.2,-2.7 -14.9,-0.7 -1.8,0.7 -6.7,3.6 -11.1,6.5 -4.3,2.8 -8.9,5.1 -10.2,5.1 -1.2,-0 -5.3,-2.1 -9.1,-4.7 -12.7,-8.6 -20.4,-10.4 -27,-6.2zM338.6,120.1c9.5,6.4 13.1,7.9 18.9,7.9 5.8,-0 9.4,-1.5 19,-8 4.2,-2.8 8.2,-4.9 8.9,-4.7 0.7,0.3 3,4.8 5,10 6.9,17.9 9,19.5 27.4,20.9 7,0.5 12.9,1.2 13.2,1.5 0.2,0.2 -0.6,4.3 -2,9.1 -4.9,17.9 -4,23.4 5.1,31.4 3.4,2.9 8,7 10.3,9l4.1,3.8 -4.1,3.7c-2.3,2.1 -6.7,6 -9.9,8.7 -3.2,2.7 -6.4,6.4 -7.1,8.2 -2.1,4.9 -1.7,12 1.1,21.4 3,9.9 3.1,12 0.8,12.1 -1,-0 -6.5,0.4 -12.4,0.8 -16.8,1.1 -19.8,3.5 -26.5,20.8 -2,5.2 -4.3,9.7 -5,10 -0.8,0.3 -5.1,-2 -9.7,-5 -9.7,-6.6 -12.4,-7.7 -18.2,-7.7 -5.8,-0 -8.5,1.1 -18.2,7.7 -4.6,3 -8.9,5.3 -9.7,5 -0.7,-0.3 -2.6,-3.8 -4.1,-7.9 -7.4,-19.5 -9.9,-21.7 -26.7,-22.9 -6.2,-0.4 -12.1,-0.8 -13,-0.8 -2.4,-0.1 -2.3,-2.2 0.7,-12.1 2.8,-9.4 3.2,-16.5 1.1,-21.4 -0.7,-1.8 -3.9,-5.5 -7.1,-8.2 -3.2,-2.7 -7.6,-6.6 -9.9,-8.7l-4.1,-3.7 3.6,-3.3c2,-1.7 6.4,-5.6 9.9,-8.6 3.4,-3 6.9,-6.9 7.6,-8.7 2.1,-4.9 1.7,-12 -1.1,-21.4 -3.2,-10.8 -3.2,-12 0.3,-12 9.3,-0.2 23.3,-2 26,-3.4 4.5,-2.3 7.8,-7.2 11.3,-16.6 3.6,-9.8 4.6,-12 6,-12 0.5,-0 4.4,2.3 8.5,5.1z" stroke="#00000000" id="path_3"/><path fill="#000000" d="M334,169.9c-0.5,1.1 -1,2.4 -1,2.9 0,0.6 4.5,7.1 10,14.7 5.5,7.5 10,14 10,14.5 0,0.6 -4.5,7.1 -10,14.6 -5.5,7.5 -10,14.4 -10,15.3 0,2.3 2,4.1 4.5,4.1 2.7,-0 5.3,-2.9 14.7,-15.7l7.5,-10.2 9.4,12.7c8.9,12 9.6,12.7 12.9,12.7 3.1,-0 3.5,-0.3 3.8,-2.8 0.3,-2.1 -0.9,-4.6 -4.7,-9.8 -2.8,-3.8 -7.4,-10 -10.2,-13.9l-5.1,-7 10.1,-13.7c10,-13.7 11.4,-16.9 8.6,-19.3 -3.2,-2.6 -6.2,-0.2 -15.6,12.5l-9.2,12.5 -7.5,-10.3c-4.1,-5.6 -8.6,-11.4 -10,-13 -3,-3.2 -6.7,-3.5 -8.2,-0.8z" stroke="#00000000" id="path_4"/><path fill="#000000" d="M309.4,326c-2.6,1 -4.8,6.1 -3.9,8.9 1.6,5.3 0,5.1 52,5.1l48.4,-0 2.1,-2.7c1.6,-2 2,-3.6 1.6,-5.8 -1.3,-6.2 0.9,-6 -50.9,-6.2 -26,-0.1 -48.1,0.2 -49.3,0.7z" stroke="#00000000" id="path_5"/><path fill="#000000" d="M309.3,358.2c-2.7,1.3 -4.7,5.9 -3.8,8.7 1.6,5.3 0,5.1 52,5.1l48.4,-0 2.1,-2.7c1.6,-2 2,-3.6 1.6,-5.8 -1.3,-6.2 0.9,-6 -50.9,-6.2 -31.8,-0.1 -47.9,0.2 -49.4,0.9z" stroke="#00000000" id="path_6"/><path fill="#000000" d="M163.6,380.1c-1.7,1.3 -2.8,3.4 -3.2,6l-0.7,3.9 -9.7,-0c-8.1,-0 -10,0.3 -11.3,1.8 -2.2,2.4 -2.1,5.5 0.1,7.5 1.7,1.5 6.1,1.7 42.3,1.7 30.2,-0 40.8,-0.3 41.7,-1.2 1.6,-1.6 1.6,-7 0,-8.6 -0.8,-0.8 -4.8,-1.2 -11.5,-1.2l-10.3,-0 0,-3.3c-0.1,-7.3 -3.5,-8.7 -20.8,-8.7 -12.6,-0 -14.2,0.2 -16.6,2.1zM194.8,387.2l0.3,2.8 -14.5,-0 -14.6,-0 0,-2.3c0,-1.3 0.3,-2.7 0.7,-3.1 0.4,-0.3 6.8,-0.5 14.2,-0.4l13.6,0.3 0.3,2.7z" stroke="#00000000" id="path_7"/><path fill="#000000" d="M37.2,400c-2.2,2.1 -2.2,2.4 -2.2,36.9 0,32.9 0.1,35 1.9,37.2l1.9,2.4 36.2,-0 36.2,-0 1.9,-2.4c1.8,-2.2 1.9,-4.3 1.9,-37l0,-34.8 -2.3,-2.1c-2.3,-2.2 -2.8,-2.2 -37.8,-2.2 -34.4,-0 -35.6,0.1 -37.7,2zM100,437.5l0,24.5 -25,-0 -25,-0 0,-24.5 0,-24.5 25,-0 25,-0 0,24.5z" stroke="#00000000" id="path_8"/><path fill="#000000" d="M143.4,412.2c0.3,2.9 1.5,17 2.7,31.3 1.1,14.3 2.5,27.3 3.1,28.8 0.6,1.5 2,3.3 3.2,4 2.5,1.4 46.9,2.3 53,1 7.1,-1.5 7.4,-2.3 10.1,-35.3 1.4,-16.2 2.5,-30.7 2.5,-32.3l0,-2.7 -37.6,-0 -37.5,-0 0.5,5.2zM165.4,413.9c0.3,0.5 1.3,12 2.2,25.6 1.7,25.9 1.5,28.3 -2.4,25.9 -1.5,-1 -1.9,-4.6 -3.3,-25.5 -1.1,-16.5 -1.3,-24.8 -0.7,-25.7 1.2,-1.4 3.4,-1.6 4.2,-0.3zM182.8,414.2c0.9,0.9 1.2,7.9 1.2,25.4 0,20.2 -0.2,24.4 -1.5,25.4 -0.8,0.7 -2.2,1 -3,0.6 -1.3,-0.5 -1.5,-4.2 -1.5,-25.9 0,-14 0.3,-25.7 0.7,-26 1,-1.1 2.8,-0.8 4.1,0.5zM200.5,414.1c0.7,1 -0.9,34.5 -2.1,45.7 -0.6,5.6 -2.7,7.8 -4.8,5 -1.4,-1.9 1,-48.6 2.6,-50.6 1.3,-1.5 3.5,-1.6 4.3,-0.1z" stroke="#00000000" id="path_9"/></svg>