<svg
    xmlns="http://www.w3.org/2000/svg"
    viewBox="0 0 24 24"
    id="vector">
    <path
        id="path"
        d="M 19 4 L 14.82 4 C 14.4 2.84 13.3 2 12 2 C 10.7 2 9.6 2.84 9.18 4 L 5 4 C 3.9 4 3 4.9 3 6 L 3 20 C 3 21.1 3.9 22 5 22 L 19 22 C 20.1 22 21 21.1 21 20 L 21 6 C 21 4.9 20.1 4 19 4 Z M 12 4 C 12.55 4 13 4.45 13 5 C 13 5.55 12.55 6 12 6 C 11.45 6 11 5.55 11 5 C 11 4.45 11.45 4 12 4 Z M 13 18 L 8 18 C 7.45 18 7 17.55 7 17 C 7 16.45 7.45 16 8 16 L 13 16 C 13.55 16 14 16.45 14 17 C 14 17.55 13.55 18 13 18 Z M 16 14 L 8 14 C 7.45 14 7 13.55 7 13 C 7 12.45 7.45 12 8 12 L 16 12 C 16.55 12 17 12.45 17 13 C 17 13.55 16.55 14 16 14 Z M 16 10 L 8 10 C 7.45 10 7 9.55 7 9 C 7 8.45 7.45 8 8 8 L 16 8 C 16.55 8 17 8.45 17 9 C 17 9.55 16.55 10 16 10 Z"
        fill="#afafaf"
        stroke="#00000000"
        stroke-width="1"
        fill-rule="evenodd"/>
</svg>
