<svg
    xmlns="http://www.w3.org/2000/svg"
    viewBox="0 0 24 24"
    id="vector">
    <path
        id="path"
        d="M 11.352 6 C 11.533 6 11.741 6.024 11.919 6.2 L 11.919 6.2 L 17.799 12.039 C 17.928 12.167 18 12.338 18 12.521 C 18.001 12.704 17.93 12.875 17.802 13.004 L 17.802 13.004 L 13.065 17.8 C 12.939 17.927 12.764 18 12.585 18 C 12.488 18 12.393 17.979 12.303 17.938 C 12.243 17.911 12.148 17.869 6.272 12.014 L 6.272 12.014 L 6.224 11.966 C 6.097 11.837 6.024 11.663 6.023 11.485 L 6.023 11.485 L 6 6.711 C 5.998 6.339 6.301 6.031 6.674 6.026 L 6.674 6.026 Z M 9 8 C 8.449 8 8 8.449 8 9 C 8 9.551 8.449 10 9 10 C 9.552 10 10 9.551 10 9 C 10 8.449 9.552 8 9 8 Z"
        fill="#d84e55"
        stroke="#00000000"
        stroke-width="1"
        fill-rule="evenodd"/>
</svg>
