<svg
    xmlns="http://www.w3.org/2000/svg"
    viewBox="0 0 52 59"
    id="vector">
    <path
        id="path"
        d="M 32.584 25.737 L 19.62 38.7 L 38.268 57.348 C 38.513 57.615 38.825 57.813 39.171 57.919 C 39.517 58.026 39.886 58.039 40.239 57.956 C 40.592 57.873 40.916 57.698 41.179 57.448 C 41.442 57.198 41.633 56.882 41.733 56.534 L 42.526 50.041 C 42.613 49.704 42.789 49.396 43.035 49.15 C 43.281 48.904 43.589 48.728 43.926 48.641 L 50.418 47.849 C 50.766 47.749 51.082 47.557 51.332 47.295 C 51.582 47.032 51.758 46.708 51.841 46.355 C 51.924 46.002 51.911 45.633 51.804 45.286 C 51.697 44.94 51.5 44.628 51.233 44.383 L 32.584 25.737 Z"
        fill="#212529"/>
    <path
        id="path_1"
        d="M 19.416 25.737 L 32.38 38.7 L 13.732 57.348 C 13.487 57.615 13.175 57.813 12.829 57.919 C 12.483 58.026 12.114 58.039 11.761 57.956 C 11.408 57.873 11.084 57.698 10.821 57.448 C 10.558 57.198 10.367 56.882 10.267 56.534 L 9.474 50.041 C 9.387 49.704 9.211 49.396 8.965 49.15 C 8.719 48.904 8.411 48.728 8.074 48.641 L 1.583 47.85 C 1.235 47.75 0.919 47.558 0.669 47.296 C 0.419 47.033 0.243 46.709 0.16 46.356 C 0.077 46.003 0.09 45.634 0.197 45.287 C 0.303 44.941 0.501 44.629 0.768 44.384 L 19.416 25.737 Z"
        fill="#212529"/>
    <path
        id="path_2"
        d="M 48.167 24.5 C 48.167 21.983 50.044 19.2 49.307 16.927 C 48.542 14.573 45.361 13.427 43.935 11.471 C 42.5 9.492 42.381 6.118 40.4 4.678 C 38.441 3.252 35.2 4.178 32.85 3.412 C 30.581 2.675 28.517 0 26 0 C 23.483 0 21.419 2.675 19.147 3.412 C 16.793 4.177 13.557 3.252 11.597 4.678 C 9.619 6.119 9.505 9.492 8.065 11.471 C 6.639 13.43 3.457 14.571 2.693 16.927 C 1.956 19.198 3.833 21.983 3.833 24.5 C 3.833 27.017 1.956 29.8 2.693 32.073 C 3.458 34.427 6.639 35.573 8.065 37.529 C 9.505 39.508 9.619 42.882 11.598 44.322 C 13.557 45.748 16.798 44.822 19.148 45.588 C 21.419 46.325 23.483 49 26 49 C 28.517 49 30.581 46.325 32.853 45.588 C 35.207 44.823 38.443 45.748 40.403 44.322 C 42.381 42.881 42.495 39.508 43.935 37.529 C 45.361 35.57 48.543 34.429 49.307 32.073 C 50.044 29.8 48.167 27.017 48.167 24.5 Z"
        fill="#faa307"/>
    <path
        id="path_3"
        d="M 26 42 C 35.665 42 43.5 34.165 43.5 24.5 C 43.5 14.835 35.665 7 26 7 C 16.335 7 8.5 14.835 8.5 24.5 C 8.5 34.165 16.335 42 26 42 Z"
        fill="#ffd100"/>
    <path
        id="path_4"
        d="M 20 22 C 21.657 22 23 20.657 23 19 C 23 17.343 21.657 16 20 16 C 18.343 16 17 17.343 17 19 C 17 20.657 18.343 22 20 22 Z"
        fill="#ffffff"/>
    <path
        id="path_5"
        d="M 32 34 C 33.657 34 35 32.657 35 31 C 35 29.343 33.657 28 32 28 C 30.343 28 29 29.343 29 31 C 29 32.657 30.343 34 32 34 Z"
        fill="#ffffff"/>
    <path
        id="path_6"
        d="M 18.5 32.5 C 18.303 32.303 18.148 32.07 18.042 31.813 C 17.936 31.556 17.882 31.281 17.883 31.003 C 17.883 30.725 17.939 30.45 18.047 30.193 C 18.154 29.937 18.311 29.704 18.509 29.509 L 30.586 17.586 C 30.963 17.222 31.468 17.02 31.993 17.025 C 32.517 17.029 33.019 17.24 33.39 17.61 C 33.761 17.981 33.971 18.483 33.975 19.007 C 33.98 19.532 33.778 20.037 33.414 20.414 L 21.491 32.491 C 21.296 32.689 21.063 32.846 20.807 32.953 C 20.55 33.061 20.275 33.117 19.997 33.117 C 19.719 33.118 19.444 33.064 19.187 32.958 C 18.93 32.852 18.697 32.696 18.5 32.5 Z"
        fill="#ffffff"/>
</svg>
