<svg id="vector" xmlns="http://www.w3.org/2000/svg" width="24" height="24" viewBox="0 0 64 64"><path fill="#000000FF" d="m41,3.316 l-2.234,1.912 -3.441,-2.062 -3.333,2 -3.332,-2 -3.436,2.062 -2.224,-1.91v11.682h18zM39,13h-14v-2h14zM39,9h-14v-2h14z" id="path_0"/><path fill="#000000FF" d="m46,11h-3v6h-22v-6h-3c-1.654,0 -3,1.346 -3,3v5h34v-5c0,-1.654 -1.346,-3 -3,-3z" id="path_1"/><path fill="#000000FF" d="m15,58c0,1.654 1.346,3 3,3h28c1.654,0 3,-1.346 3,-3v-37h-34zM22,56.667c0,0.735 -0.598,1.333 -1.333,1.333h-1.333c-0.736,0 -1.334,-0.598 -1.334,-1.333v-1.333c0,-0.736 0.598,-1.334 1.333,-1.334h1.333c0.736,0 1.334,0.598 1.334,1.333zM22,48.667c0,0.735 -0.598,1.333 -1.333,1.333h-1.333c-0.736,0 -1.334,-0.598 -1.334,-1.333v-1.333c0,-0.736 0.598,-1.334 1.333,-1.334h1.333c0.736,0 1.334,0.598 1.334,1.333zM22,40.667c0,0.735 -0.598,1.333 -1.333,1.333h-1.333c-0.736,0 -1.334,-0.598 -1.334,-1.333v-1.333c0,-0.736 0.598,-1.334 1.333,-1.334h1.333c0.736,0 1.334,0.598 1.334,1.333zM30,56.667c0,0.735 -0.598,1.333 -1.333,1.333h-1.333c-0.736,0 -1.334,-0.598 -1.334,-1.333v-1.333c0,-0.736 0.598,-1.334 1.333,-1.334h1.333c0.736,0 1.334,0.598 1.334,1.333zM30,48.667c0,0.735 -0.598,1.333 -1.333,1.333h-1.333c-0.736,0 -1.334,-0.598 -1.334,-1.333v-1.333c0,-0.736 0.598,-1.334 1.333,-1.334h1.333c0.736,0 1.334,0.598 1.334,1.333zM30,40.667c0,0.735 -0.598,1.333 -1.333,1.333h-1.333c-0.736,0 -1.334,-0.598 -1.334,-1.333v-1.333c0,-0.736 0.598,-1.334 1.333,-1.334h1.333c0.736,0 1.334,0.598 1.334,1.333zM38,56.667c0,0.735 -0.598,1.333 -1.333,1.333h-1.333c-0.736,0 -1.334,-0.598 -1.334,-1.333v-1.333c0,-0.736 0.598,-1.334 1.333,-1.334h1.333c0.736,0 1.334,0.598 1.334,1.333zM38,48.667c0,0.735 -0.598,1.333 -1.333,1.333h-1.333c-0.736,0 -1.334,-0.598 -1.334,-1.333v-1.333c0,-0.736 0.598,-1.334 1.333,-1.334h1.333c0.736,0 1.334,0.598 1.334,1.333zM38,40.667c0,0.735 -0.598,1.333 -1.333,1.333h-1.333c-0.736,0 -1.334,-0.598 -1.334,-1.333v-1.333c0,-0.736 0.598,-1.334 1.333,-1.334h1.333c0.736,0 1.334,0.598 1.334,1.333zM46.571,56.286c0,0.945 -0.769,1.714 -1.714,1.714h-1.714c-0.945,0 -1.714,-0.769 -1.714,-1.714v-8.571c0,-0.945 0.769,-1.714 1.714,-1.714h1.714c0.945,0 1.714,0.769 1.714,1.714zM42,40.667v-1.333c0,-0.736 0.598,-1.334 1.333,-1.334h1.333c0.736,0 1.334,0.598 1.334,1.333v1.333c0,0.736 -0.598,1.334 -1.333,1.334h-1.333c-0.736,0 -1.334,-0.598 -1.334,-1.333zM17,23h30v12h-30z" id="path_2"/><path fill="#000000FF" d="m19,25h26v8h-26z" id="path_3"/></svg>