<svg id="vector" xmlns="http://www.w3.org/2000/svg" width="256" height="256" viewBox="0 0 512 512"><path fill="#000000" d="M127.3,1.5c-9.3,2.9 -17.1,9.2 -21.2,17.3 -3.5,6.8 -4.1,14.5 -4.1,49.4l0,33.8 -33.8,-0c-20,-0 -36.3,0.4 -39.8,1.1 -11.5,2.1 -20.1,8.9 -25.3,19.8l-2.6,5.6 0,119 0,119 3.3,6.7c3.9,8 10.1,13.8 18.1,17 5.4,2.2 7,2.2 42.9,2.6l37.2,0.4 0,42.2c0,26.1 0.4,44.5 1.1,48.2 2.1,11.5 8.9,20.1 19.8,25.3l5.6,2.6 125.4,0.3c111.8,0.2 126.1,0.1 130.9,-1.3 13,-3.8 21.6,-13.4 24.1,-27 0.7,-3.6 1.1,-21.9 1.1,-48.1l0,-42.2 37.3,-0.4c35.8,-0.4 37.4,-0.4 42.8,-2.6 8,-3.2 14.2,-9 18.1,-17l3.3,-6.7 0,-119 0,-119 -2.6,-5.6c-5.2,-10.9 -13.8,-17.7 -25.3,-19.8 -3.5,-0.7 -19.8,-1.1 -39.8,-1.1l-33.8,-0 0,-33.8c0,-20.2 -0.4,-36.2 -1.1,-39.7 -2.5,-13.5 -11,-23.1 -23.9,-26.9 -4.8,-1.4 -19,-1.6 -129.4,-1.5 -99.7,-0 -124.9,0.3 -128.3,1.4zM180.5,31.3c9.9,10.2 15.5,15.1 19,16.8l5,2.4 51.5,-0 51.5,-0 5.8,-2.9c4.5,-2.3 8.9,-6.2 18.9,-16.8l13,-13.8 16.7,-0c15.3,-0 17,0.2 21.1,2.2 5.2,2.7 7.8,6 9,11.4 0.5,2.1 1,19 1,37.5l0,33.6 -7.4,0.6c-11,0.8 -16.3,4.4 -19.1,12.8 -2.9,8.7 -11.4,14.1 -19.7,12.5 -6.4,-1.2 -9.7,-4.2 -13.3,-12.1 -2.7,-5.9 -4.3,-8 -7.6,-10.2l-4.3,-2.8 -101.3,-0.3 -101.3,-0.2 0,-33.8c0,-18.5 0.5,-35.5 1,-37.6 1.2,-5.4 3.8,-8.7 9,-11.4 4.1,-2 5.8,-2.2 21,-2.2l16.5,-0 14,14.3zM318.9,19.7c-13.5,15.5 -8,14.3 -62.9,14.3 -54.9,-0 -49.4,1.2 -62.9,-14.3l-2.4,-2.7 65.3,-0 65.3,-0 -2.4,2.7zM190,120l126.7,-0 2.4,5.2c3.1,6.7 9.2,12.8 16,16.1 4.4,2.2 5.8,3.5 6.8,6.3 1.4,3.9 6.5,6.9 9.8,5.7 3.1,-1 6.3,-4.5 6.3,-6.8 0,-1.6 1.4,-2.7 5.9,-4.8 7.1,-3.2 15.1,-11.5 17.6,-18.2l1.8,-4.5 47.1,-0c25.9,-0 48.9,0.5 51,1 5.4,1.2 8.7,3.8 11.3,9 2.3,4.4 2.3,4.8 2.3,48.7l0,44.3 -48.5,-0 -48.6,-0 -2.4,2.5c-3.1,3 -3.3,8.3 -0.6,11.6l1.9,2.4 49.1,0.3 49.1,0.3 0,8.4 0,8.5 -48.5,-0 -48.6,-0 -2.4,2.5c-1.7,1.6 -2.5,3.5 -2.5,6 0,2.5 0.8,4.4 2.5,6l2.4,2.5 48.6,-0 48.5,-0 0,44.2c0,41 -0.2,44.6 -1.9,48.4 -1,2.3 -3.4,5.2 -5.2,6.5l-3.4,2.4 -50.6,0.3 -50.6,0.3 -2.6,-5.3c-3.5,-7.1 -9.9,-13.3 -16.9,-16.6 -4.3,-2 -5.8,-3.2 -5.8,-4.8 0,-2.3 -3.4,-5.8 -6.7,-6.8 -3.4,-1.1 -8,1.8 -9.4,5.9 -1.1,2.8 -2.4,4 -6.6,6 -6.5,2.9 -13,9.5 -16.2,16.3l-2.5,5.2 -144.5,-0.2 -144.6,-0.3 -3.4,-2.4c-1.8,-1.3 -4.2,-4.2 -5.2,-6.5 -1.8,-3.9 -1.9,-9.1 -1.9,-118.1l0,-114.1 2.3,-4.4c4.4,-8.7 8.6,-10.1 29.1,-9.5 8.2,0.3 71.9,0.5 141.6,0.5zM355.7,368.1c4.1,1.5 9.1,6.7 10.4,10.8 1.5,4.8 5.3,9.8 8.9,11.6 1.6,0.8 6.4,1.8 10.5,2.2l7.7,0.6 -0.4,23.1c-0.2,19.2 -0.6,23.6 -2,26.1 -2.1,3.9 -5.6,7.1 -9.1,8.4 -4,1.5 -247.4,1.5 -251.4,-0 -3.5,-1.3 -7,-4.5 -9.1,-8.4 -1.4,-2.5 -1.8,-6.9 -2,-26.3l-0.4,-23.2 98.1,-0c63.8,-0 99.7,-0.4 102.8,-1 6.7,-1.5 9.7,-4.3 14.1,-13 3.2,-6.4 4.3,-7.8 8.2,-9.8 4.8,-2.4 9.3,-2.8 13.7,-1.1zM126.9,467.6c3.7,1.2 25.9,1.4 129.1,1.4 127.5,-0 126.8,-0 135.3,-3.5 1.5,-0.6 1.7,-0.1 1.7,5.1 -0.1,13 -2.6,18.3 -10,22.1l-4.4,2.3 -122.6,-0 -122.6,-0 -4.4,-2.3c-7.5,-3.8 -9.9,-9.1 -10,-21.6 0,-5.6 0.2,-6.2 1.8,-5.6 0.9,0.4 3.7,1.4 6.1,2.1z" stroke="#00000000" id="path_0"/><path fill="#000000" d="M400.9,139.3c-1.8,1.2 -4.4,3.8 -5.6,5.6 -2.2,3.3 -2.3,4.2 -2.3,25.3 0,25 0.5,27.1 7.3,31.6 4,2.7 4.3,2.7 24.5,3 22.9,0.4 27,-0.4 31.6,-5.9 4.2,-5 4.8,-8.9 4.4,-30.5 -0.3,-19.8 -0.3,-20.1 -3,-24.1 -4.5,-6.8 -6.6,-7.3 -31.6,-7.3 -21.1,-0 -22,0.1 -25.3,2.3zM444,171l0,17 -17,-0 -17,-0 0,-17 0,-17 17,-0 17,-0 0,17z" stroke="#00000000" id="path_1"/><path fill="#000000" d="M343.9,173.6c-2.1,2.2 -2.4,3.5 -2.4,9.9 0,6.4 0.3,7.7 2.4,9.9 3.3,3.5 8.3,3.5 11.6,0.1 2.2,-2.2 2.5,-3.3 2.5,-10.4 0,-7.4 -0.2,-8.1 -2.6,-10 -3.7,-2.9 -8.5,-2.7 -11.5,0.5z" stroke="#00000000" id="path_2"/><path fill="#000000" d="M46,176.7c-1.9,1 -4.5,3.3 -5.7,5.2l-2.3,3.4 0,58.9c0,63.8 -0.2,61.5 5.5,66.8 2.4,2.2 3.7,2.5 11.9,2.8l9.3,0.4 1.2,3.7c0.6,2.1 2.5,5.7 4.1,8 13,17.8 40.9,13.1 47.9,-8.2l1.3,-3.7 5.8,-0c4,-0 6.4,-0.5 7.4,-1.6 3.9,-3.8 1,-6.4 -7.1,-6.4 -6,-0 -6.3,-0.1 -6.9,-2.8 -2.4,-9.9 -10.8,-17.8 -21.2,-20.1 -7.9,-1.7 -17.3,0.8 -23.3,6.1 -3.6,3.2 -7.6,9.7 -8.4,13.5l-0.7,3.3 -6.9,-0c-6.1,-0 -7.3,-0.3 -9.4,-2.5l-2.5,-2.4 0,-56.3c0,-49.4 0.2,-56.6 1.6,-58.6l1.5,-2.2 125.8,-0c99.5,-0 126.1,0.3 126.8,1.2 0.6,0.7 1.3,2.5 1.7,4l0.6,2.8 -28.5,-0 -28.6,-0 -2.4,2.5 -2.5,2.4 0,25.2c0,20.8 0.3,25.7 1.6,28.4 4.4,9.4 28.7,17.2 59.9,19.3l10,0.7 0.3,15.7 0.2,15.6 -2.6,2.1c-2.1,1.6 -4.1,2.1 -9,2.1 -6.1,-0 -6.4,-0.1 -7,-2.8 -3.3,-13.6 -17.6,-22.8 -31.5,-20.2 -9.6,1.8 -18.2,9.6 -21,18.7l-1.2,4.3 -47.5,0.2c-44,0.3 -47.6,0.4 -48.6,2 -0.8,1.3 -0.8,2.3 0,3.5 1,1.7 4.6,1.8 48.7,2.1l47.7,0.2 0.6,2.8c2.7,11.2 14.2,20.2 25.8,20.2 12.7,-0 23.5,-8.3 27.1,-20.8 0.6,-2 1.2,-2.2 7.6,-2.2 8.6,-0 12.8,-1.7 16.5,-6.6l2.9,-3.7 0.3,-29.1 0.3,-29.1 -6,-30c-3.3,-16.5 -6.4,-31.2 -6.9,-32.6 -0.6,-1.5 -2.6,-3.7 -4.4,-5l-3.3,-2.4 -126.5,-0.3c-118.9,-0.2 -126.7,-0.1 -130,1.5zM309.7,221c3.3,16.1 4.2,22.7 4.3,30.9l0,10.4 -9.2,-0.7c-24.6,-1.8 -46.7,-7.5 -52.8,-13.6 -1.9,-1.9 -2,-3.4 -2,-24.3 0,-12.3 0.3,-22.7 0.7,-23 0.4,-0.4 12.8,-0.6 27.7,-0.5l27.1,0.3 4.2,20.5zM99.3,292.4c4.1,1.7 9.1,7.4 10.7,12.1 4.5,13.5 -8.9,27.3 -22.8,23.5 -12.6,-3.3 -18.1,-18.1 -10.8,-29 4.6,-7 14.9,-10 22.9,-6.6zM279.2,293.9c10.4,7.2 11.5,21.9 2.2,30 -8.6,7.6 -20.8,6.1 -28,-3.5 -2.5,-3.2 -2.9,-4.6 -2.9,-10.4 0,-5.7 0.4,-7.3 2.8,-10.8 4,-5.7 9.7,-8.4 16.9,-7.9 3.8,0.2 6.7,1.1 9,2.6z" stroke="#00000000" id="path_3"/><path fill="#000000" d="M58.9,193.9c-2.4,1.9 -2.4,2.1 -2.7,25.2 -0.2,12.9 -0.1,24.8 0.3,26.6 1.2,6.5 -0.2,6.3 41.5,6.3 40.9,-0 40.2,0.1 41.6,-5.3 0.3,-1.3 0.4,-13.2 0.2,-26.6 -0.3,-24.1 -0.3,-24.3 -2.7,-26.2 -2.2,-1.8 -4.4,-1.9 -39.1,-1.9 -34.7,-0 -36.9,0.1 -39.1,1.9zM93.8,222.2l0.2,21.8 -14.5,-0 -14.5,-0 0,-22 0,-22.1 14.3,0.3 14.2,0.3 0.3,21.7zM131,222l0,22 -14.5,-0 -14.5,-0 0,-21.3c0,-11.8 0.3,-21.7 0.7,-22 0.3,-0.4 6.9,-0.7 14.5,-0.7l13.8,-0 0,22z" stroke="#00000000" id="path_4"/><path fill="#000000" d="M150.4,194.5l-2.5,2.5 0.3,26.1c0.3,24.5 0.4,26.2 2.2,27.5 1.6,1.1 8.7,1.4 39.6,1.4 35.2,-0 37.8,-0.1 39.3,-1.8 1.5,-1.6 1.7,-5 1.7,-27.8 0,-14.2 -0.4,-26.4 -0.8,-27 -2.1,-3.1 -5.4,-3.4 -41.2,-3.4l-36.1,-0 -2.5,2.5zM185.8,205.5c0.4,5.5 1.5,7.5 4.3,7.5 2.5,-0 3.9,-3 3.9,-8.5l0,-4.6 14.3,0.3 14.2,0.3 0.3,21.7 0.2,21.8 -14.5,-0 -14.5,-0 0,-8.4c0,-8.5 -1.2,-11.6 -4.4,-11.6 -2.8,-0 -3.6,2.6 -3.6,11.2l0,8.8 -14.5,-0 -14.5,-0 0,-22 0,-22.1 14.3,0.3 14.2,0.3 0.3,5z" stroke="#00000000" id="path_5"/><path fill="#000000" d="M345.9,214.5c-3.7,2 -5.2,6.4 -4.7,13.6 0.4,5.3 0.9,6.6 3.3,8.7 2.3,1.9 3.6,2.3 6.4,1.8 5.6,-0.9 7.1,-3.5 7.1,-12.5 0,-6.7 -0.3,-8 -2.2,-9.9 -3.1,-2.8 -6.8,-3.5 -9.9,-1.7z" stroke="#00000000" id="path_6"/><path fill="#000000" d="M344.4,258.3c-2.3,2 -2.8,3.4 -3.2,8.6 -0.6,7.8 1.1,11.9 5.4,13.7 3.7,1.5 5.8,1.1 9.2,-1.9 1.9,-1.8 2.2,-3 2.2,-9.9 0,-7 -0.3,-8.2 -2.5,-10.3 -3.1,-3.2 -7.5,-3.2 -11.1,-0.2z" stroke="#00000000" id="path_7"/><path fill="#000000" d="M243.2,270.2c-1.5,1.5 -1.6,4 0,5.6 0.7,0.7 3.5,1.2 6.4,1.2 5.7,-0 7.8,-1.5 7.2,-5.2 -0.3,-2.1 -0.9,-2.3 -6.3,-2.6 -3.8,-0.2 -6.5,0.2 -7.3,1z" stroke="#00000000" id="path_8"/><path fill="#000000" d="M343.9,301.6c-2.1,2.2 -2.4,3.5 -2.4,9.9 0,6.4 0.3,7.7 2.4,9.9 3.3,3.5 8.3,3.5 11.6,0.1 2.2,-2.2 2.5,-3.3 2.5,-10.4 0,-7.4 -0.2,-8.1 -2.6,-10 -3.7,-2.9 -8.5,-2.7 -11.5,0.5z" stroke="#00000000" id="path_9"/><path fill="#000000" d="M395.2,301.3c-2.1,2.2 -2.2,3.2 -2.2,22.8 0,22.4 0.4,24.2 5.8,25.4 4.4,0.9 8.1,-1 9.8,-5.1 1.2,-2.9 1.5,-7.3 1.2,-21.9 -0.3,-17.8 -0.4,-18.4 -2.7,-20.9 -3.2,-3.4 -8.8,-3.6 -11.9,-0.3z" stroke="#00000000" id="path_10"/><path fill="#000000" d="M429.5,301.5c-2.5,2.4 -2.5,2.5 -2.5,23 0,19.1 0.1,20.6 2,22.5 4.3,4.3 11,3.4 13.7,-2 1.7,-3.3 1.8,-38.2 0.1,-41.3 -2.8,-5.3 -9.2,-6.4 -13.3,-2.2z" stroke="#00000000" id="path_11"/><path fill="#000000" d="M463.5,301.5c-2.5,2.4 -2.5,2.5 -2.5,22.7 0.1,21.2 0.3,22.3 4.7,24.6 3.5,1.9 6.3,1.4 9.4,-1.7l2.9,-2.9 0,-19.2c0,-23.6 -0.8,-26 -9.1,-26 -1.8,-0 -3.9,1 -5.4,2.5z" stroke="#00000000" id="path_12"/></svg>