<svg
    xmlns="http://www.w3.org/2000/svg"
    viewBox="0 0 52 65"
    id="vector">
    <path
        id="path"
        d="M 46.683 12.04 C 41.247 6.607 32.409 6.611 26.977 12.04 L 24.272 14.745 L 23.777 14.248 C 18.348 8.817 9.509 8.817 4.074 14.248 C -1.358 19.68 -1.358 28.518 4.074 33.954 L 6.956 36.834 C 6.742 37.307 6.623 37.824 6.623 38.359 C 6.623 39.358 7.011 40.294 7.715 40.996 C 8.421 41.702 9.358 42.092 10.356 42.092 C 10.486 42.092 10.61 42.069 10.736 42.056 C 10.627 43.134 10.969 44.247 11.79 45.071 C 12.496 45.777 13.432 46.167 14.429 46.167 C 14.557 46.167 14.681 46.144 14.804 46.131 C 14.696 47.208 15.037 48.324 15.86 49.147 C 16.588 49.875 17.546 50.238 18.499 50.238 C 18.625 50.238 18.751 50.214 18.877 50.201 C 18.864 50.327 18.84 50.451 18.84 50.579 C 18.84 51.577 19.229 52.514 19.933 53.22 C 20.66 53.947 21.616 54.31 22.572 54.31 C 23.528 54.31 24.483 53.947 25.213 53.22 L 26.482 51.951 L 27.751 53.22 C 28.479 53.947 29.435 54.31 30.39 54.31 C 31.346 54.31 32.302 53.947 33.029 53.22 C 33.733 52.514 34.124 51.575 34.124 50.579 C 34.124 50.451 34.1 50.327 34.088 50.201 C 34.213 50.214 34.337 50.238 34.463 50.238 C 35.419 50.238 36.374 49.873 37.104 49.147 C 37.928 48.324 38.267 47.208 38.158 46.131 C 38.284 46.144 38.41 46.167 38.535 46.167 C 39.489 46.167 40.447 45.802 41.174 45.075 C 41.998 44.251 42.337 43.136 42.228 42.058 C 42.354 42.071 42.478 42.095 42.604 42.095 C 43.602 42.095 44.539 41.704 45.245 41 C 46.7 39.545 46.7 37.177 45.245 35.718 L 43.975 34.449 L 46.681 31.744 C 52.112 26.314 52.112 17.474 46.683 12.04 Z M 8.921 39.793 C 8.539 39.411 8.327 38.903 8.327 38.361 C 8.327 37.819 8.539 37.31 8.921 36.928 L 13.332 32.518 C 13.716 32.134 14.224 31.925 14.766 31.925 C 15.308 31.925 15.816 32.136 16.197 32.516 L 16.199 32.518 C 16.581 32.9 16.792 33.408 16.792 33.95 C 16.792 34.492 16.581 34.999 16.197 35.383 L 11.786 39.793 C 11.02 40.559 9.684 40.556 8.921 39.793 Z M 12.995 43.868 C 12.204 43.076 12.204 41.79 12.995 41 L 17.407 36.589 C 17.789 36.207 18.296 35.998 18.838 35.998 C 19.378 35.998 19.888 36.209 20.272 36.591 C 20.654 36.972 20.865 37.48 20.865 38.022 C 20.865 38.564 20.654 39.072 20.272 39.454 L 15.856 43.868 L 15.854 43.87 C 15.09 44.627 13.759 44.629 12.995 43.868 Z M 17.066 47.94 C 16.276 47.148 16.276 45.866 17.061 45.077 L 17.066 45.073 L 21.477 40.661 C 21.872 40.264 22.39 40.07 22.911 40.07 C 23.429 40.07 23.948 40.266 24.342 40.661 C 24.726 41.045 24.935 41.553 24.935 42.095 C 24.935 42.637 24.722 43.144 24.34 43.526 L 19.928 47.938 C 19.141 48.729 17.855 48.727 17.066 47.94 Z M 24.003 52.01 C 23.216 52.802 21.927 52.8 21.138 52.013 C 20.754 51.629 20.545 51.119 20.545 50.577 C 20.545 50.035 20.756 49.527 21.138 49.145 L 25.55 44.734 C 25.947 44.339 26.465 44.143 26.986 44.143 C 27.504 44.143 28.022 44.341 28.419 44.734 C 29.208 45.523 29.208 46.809 28.417 47.599 L 25.883 50.133 L 25.876 50.137 L 25.872 50.144 L 24.003 52.01 Z M 32.415 50.577 C 32.415 51.119 32.204 51.629 31.822 52.01 C 31.035 52.802 29.744 52.802 28.957 52.01 L 27.69 50.743 L 29.627 48.808 C 29.955 48.48 30.198 48.102 30.378 47.701 L 31.824 49.147 C 32.204 49.527 32.415 50.035 32.415 50.577 Z M 44.04 39.793 C 43.25 40.586 41.957 40.582 41.174 39.793 L 36.763 35.383 C 36.43 35.05 35.888 35.05 35.555 35.383 C 35.222 35.716 35.222 36.258 35.555 36.591 L 39.967 41 C 40.758 41.79 40.758 43.076 39.967 43.865 C 39.182 44.655 37.891 44.659 37.102 43.865 L 32.69 39.454 C 32.357 39.121 31.816 39.121 31.483 39.454 C 31.15 39.786 31.15 40.328 31.483 40.661 L 35.894 45.073 C 36.686 45.862 36.686 47.148 35.896 47.938 C 35.107 48.727 33.819 48.731 33.029 47.938 L 30.659 45.566 C 30.538 44.819 30.201 44.1 29.627 43.526 L 29.622 43.526 C 28.799 42.703 27.683 42.366 26.606 42.474 C 26.619 42.348 26.642 42.225 26.642 42.097 C 26.644 41.098 26.256 40.16 25.55 39.454 L 25.548 39.454 C 24.726 38.63 23.611 38.291 22.533 38.4 C 22.546 38.274 22.57 38.15 22.57 38.022 C 22.57 37.024 22.181 36.087 21.477 35.383 C 20.68 34.585 19.547 34.257 18.456 34.363 C 18.472 34.225 18.497 34.09 18.497 33.95 C 18.497 32.953 18.107 32.017 17.4 31.313 C 15.993 29.903 13.533 29.905 12.123 31.313 L 7.982 35.454 L 5.277 32.749 C 0.511 27.98 0.511 20.224 5.277 15.458 C 10.045 10.692 17.802 10.69 22.567 15.458 L 23.065 15.953 L 15.692 23.326 C 15.359 23.658 15.359 24.198 15.692 24.531 C 17.951 26.79 20.916 27.919 23.884 27.919 C 26.753 27.919 29.61 26.839 31.839 24.727 L 42.162 35.048 L 42.166 35.055 L 42.173 35.059 L 44.04 36.926 C 44.829 37.717 44.829 39.004 44.04 39.793 Z M 42.77 33.241 L 33.07 23.541 L 34.26 22.351 C 34.593 22.018 34.593 21.478 34.26 21.145 C 33.928 20.813 33.386 20.813 33.053 21.145 L 30.872 23.326 C 27.225 26.972 21.407 27.166 17.531 23.904 L 24.876 16.559 L 24.88 16.556 L 24.882 16.552 L 28.187 13.248 C 32.95 8.486 40.707 8.482 45.475 13.248 C 50.241 18.016 50.241 25.772 45.475 30.538 L 42.77 33.241 Z"
        fill="#e62553"/>
</svg>
