<svg id="vector" xmlns="http://www.w3.org/2000/svg" width="512" height="512" viewBox="0 0 512 512"><path fill="#000000" d="M54.3,1.5c-18.2,4.9 -32,18.9 -36.8,37.2 -2.3,8.6 -2.3,426 0,434.6 4.8,18.5 18.7,32.4 37.2,37.2 8.6,2.2 214,2.2 222.6,-0 18.5,-4.8 32.4,-18.7 37.2,-37.2 1.3,-4.8 1.5,-16.8 1.5,-74l0,-68.3 16.3,-12.2 16.2,-12.3 62.5,-0.5c61.3,-0.5 62.6,-0.5 67.1,-2.6 6,-2.8 12.5,-9.3 15.3,-15.3 2.1,-4.6 2.1,-4.9 2.1,-82.1 0,-77.2 0,-77.5 -2.1,-82.1 -2.8,-6 -9.3,-12.5 -15.3,-15.3 -4.6,-2.1 -5.2,-2.1 -83.3,-2.4l-78.8,-0.2 0,-30.8c0,-24 -0.3,-32 -1.5,-36.5 -4.8,-18.5 -18.7,-32.4 -37.2,-37.2 -8.3,-2.2 -215,-2.1 -223,-0zM274.7,21.5c6.6,2 12.7,6.5 16.3,12.2 1.7,2.6 3,5.1 3,5.5 0,0.4 -57.6,0.8 -128,0.8 -70.4,-0 -128,-0.4 -128,-0.8 0,-2 6.1,-10.2 9.5,-12.8 2,-1.5 6,-3.6 8.8,-4.5 4.9,-1.7 12,-1.8 109.3,-1.9 89.3,-0 104.7,0.2 109.1,1.5zM296,83l0,22.9 -38.7,0.3c-37.3,0.3 -39,0.4 -43.4,2.4 -6,2.8 -12.5,9.3 -15.3,15.3 -2.1,4.6 -2.1,4.9 -2.1,82.1 0,77.2 0,77.5 2.1,82.1 2.8,6 9.3,12.5 15.3,15.3 4.1,1.9 6.7,2.1 23.4,2.4l18.7,0.4 0,26c0,28.2 0.4,30.3 5.7,32.7 5.4,2.5 6.6,1.9 22.6,-10.1l11.7,-8.9 0,33.1 0,33 -130,-0 -130,-0 0,-176 0,-176 130,-0 130,-0 0,23zM472.7,129.3l2.8,2.7 0,74 0,74 -2.8,2.7 -2.7,2.8 -63.8,0.5c-37.4,0.3 -64.3,0.9 -65.2,1.4 -0.8,0.6 -15.8,11.7 -33.2,24.8l-31.7,23.7 -0.3,-21.9 -0.3,-22 -2.8,-2.7 -2.7,-2.8 -24,-0.5 -24,-0.5 -2.7,-2.8 -2.8,-2.7 0,-73.9c0,-72.5 0,-73.9 2,-76.1 1.1,-1.2 2.9,-2.6 4,-3.1 1.1,-0.4 57.2,-0.7 124.7,-0.6l122.8,0.2 2.7,2.8zM295.8,450.7c-0.3,16.7 -0.5,19.3 -2.4,23.4 -2.8,6 -9.3,12.5 -15.3,15.3l-4.6,2.1 -107.5,-0 -107.5,-0 -4.6,-2.1c-6,-2.8 -12.5,-9.3 -15.3,-15.3 -1.9,-4.1 -2.1,-6.7 -2.4,-23.4l-0.4,-18.7 130.2,-0 130.2,-0 -0.4,18.7z" stroke="#00000000" id="path_0"/><path fill="#000000" d="M262.4,167c-3.2,1.3 -6.4,5.9 -6.4,9.1 0,4 4.6,8.8 9.1,9.5 3.1,0.5 4.2,0.1 7,-2.4 2.8,-2.5 3.4,-3.7 3.4,-7.2 0,-3.5 -0.6,-4.7 -3.3,-7.1 -3.3,-2.9 -6,-3.5 -9.8,-1.9z" stroke="#00000000" id="path_1"/><path fill="#000000" d="M302.4,167c-3.2,1.3 -6.4,5.9 -6.4,9.1 0,1.8 1.1,4.1 2.9,6.1l2.9,3.3 63.6,0.3 63.5,0.2 3.3,-2.9c2.7,-2.4 3.3,-3.6 3.3,-7.1 0,-3.5 -0.6,-4.7 -3.3,-7.1l-3.2,-2.9 -62.3,0.1c-34.2,-0 -63.2,0.4 -64.3,0.9z" stroke="#00000000" id="path_2"/><path fill="#000000" d="M262.4,227c-3.2,1.3 -6.4,5.9 -6.4,9.1 0,4 4.6,8.8 9.1,9.5 3.1,0.5 4.2,0.1 7,-2.4 2.8,-2.5 3.4,-3.7 3.4,-7.2 0,-3.5 -0.6,-4.7 -3.3,-7.1 -3.3,-2.9 -6,-3.5 -9.8,-1.9z" stroke="#00000000" id="path_3"/><path fill="#000000" d="M302.4,227c-3.2,1.3 -6.4,5.9 -6.4,9.1 0,1.8 1.1,4.1 2.9,6.1l2.9,3.3 63.6,0.3 63.5,0.2 3.3,-2.9c2.7,-2.4 3.3,-3.6 3.3,-7.1 0,-3.5 -0.6,-4.7 -3.3,-7.1l-3.2,-2.9 -62.3,0.1c-34.2,-0 -63.2,0.4 -64.3,0.9z" stroke="#00000000" id="path_4"/><path fill="#000000" d="M122.5,452.9c-6.2,2.6 -8.1,11 -3.4,15.6 1.4,1.4 4.1,2.8 6.1,3.1 3,0.5 4.1,0.1 6.9,-2.4 2.8,-2.5 3.4,-3.7 3.4,-7.2 0,-3.5 -0.6,-4.7 -3.3,-7.1 -3.3,-2.9 -6,-3.5 -9.7,-2z" stroke="#00000000" id="path_5"/><path fill="#000000" d="M162.4,453c-3.2,1.3 -6.4,5.9 -6.4,9.1 0,1.8 1.1,4.1 2.9,6.1l2.9,3.3 23.5,0.3 23.6,0.3 3.3,-2.9c2.7,-2.5 3.3,-3.7 3.3,-7.2 0,-3.5 -0.6,-4.7 -3.3,-7.1l-3.2,-2.9 -22.3,0.1c-12.2,-0 -23.2,0.4 -24.3,0.9z" stroke="#00000000" id="path_6"/></svg>