<svg
xmlns="http://www.w3.org/2000/svg"
viewBox="0 0 24 24"
    width="48"
    height="48"
id="vector">
<path
    d="M11.9904,0C5.3763,0 0,5.3806 0,12C0,14.0323 0.5027,16.0259 1.489,17.7872L0.4642,21.5421C0.2902,22.1421 0.464,22.7614 0.9088,23.2065C1.3536,23.6517 1.9728,23.826 2.5723,23.6711L6.4787,22.6452C8.1805,23.5355 10.0757,24 12.0096,24C18.6237,24 24,18.6194 24,12C24,8.7871 22.7624,5.7869 20.4997,3.5224C18.2176,1.2579 15.2007,0 11.9904,0ZM11.9904,1.1613C14.8913,1.1613 17.618,2.2839 19.6487,4.3356C21.6986,6.3872 22.8397,9.1161 22.8204,12C22.8204,17.9806 17.9662,22.8387 11.9904,22.8387C10.1918,22.8387 8.3931,22.374 6.8073,21.5224C6.7299,21.4837 6.6335,21.4453 6.5368,21.4453C6.4788,21.4453 6.44,21.4452 6.382,21.4646L2.2625,22.5484C1.9725,22.6258 1.7794,22.4708 1.702,22.3934C1.6247,22.316 1.4698,22.1227 1.5471,21.8324L2.6301,17.845C2.6687,17.6902 2.6496,17.5356 2.5723,17.4001C1.644,15.7743 1.1604,13.8968 1.1604,12C1.1604,6.0194 6.0145,1.1613 11.9904,1.1613ZM11.9904,2.9032C6.9815,2.9032 2.9009,6.9677 2.9009,12C2.9009,13.6065 3.3265,15.1742 4.1194,16.5484C4.4289,17.0903 4.5061,17.7289 4.3513,18.3289L3.7904,20.3611L5.9567,19.8002C6.15,19.7421 6.3434,19.7227 6.5368,19.7227C6.9236,19.7227 7.3103,19.8194 7.639,20.013C8.9734,20.7098 10.4626,21.0968 11.9904,21.0968C16.9992,21.0968 21.0798,17.0129 21.0798,12C21.0798,9.5613 20.1321,7.2773 18.4109,5.5547C16.709,3.8515 14.4271,2.9032 11.9904,2.9032ZM7.9484,6.716L8.49,6.716C8.7028,6.716 8.9153,6.7353 9.128,7.1998C9.3794,7.7611 9.9403,9.1741 9.9983,9.3096C10.0756,9.4451 10.1146,9.6192 10.0179,9.8128C9.9212,10.0063 9.8825,10.1224 9.7278,10.2966C9.5924,10.4708 9.4182,10.6647 9.3021,10.8002C9.1668,10.9356 9.0121,11.0905 9.1862,11.3808C9.3602,11.6711 9.9209,12.6 10.7718,13.3548C11.8548,14.3226 12.7832,14.6324 13.0733,14.7679C13.3634,14.9034 13.5183,14.8839 13.6924,14.6904C13.8664,14.4969 14.4078,13.858 14.6012,13.5677C14.7946,13.2773 14.9881,13.3356 15.2395,13.4323C15.5103,13.5291 16.9026,14.2257 17.1927,14.3611C17.4828,14.4966 17.676,14.5743 17.734,14.6904C17.8113,14.8452 17.8116,15.4064 17.5795,16.0838C17.3474,16.7419 16.1871,17.3999 15.6456,17.4386C15.1234,17.4773 14.6397,17.671 12.2223,16.7227C9.3214,15.5807 7.4843,12.5999 7.3489,12.4064C7.2136,12.2128 6.1886,10.8582 6.1886,9.4453C6.1886,8.0324 6.9233,7.3548 7.1941,7.0645C7.4648,6.7742 7.755,6.716 7.9484,6.716Z"
    stroke-width="1"
    fill="#25D366"
    fill-rule="evenodd"/>
</svg>
